<svg width="100" height="59" viewBox="0 0 100 59" fill="none" xmlns="http://www.w3.org/2000/svg">
<path d="M63.9545 14.5587C61.9545 14.8381 59.3636 15.1175 58.1818 15.1175C56.0909 15.164 56 15.2106 56 16.4212C56 17.4455 56.3636 17.8645 57.5 18.4233L58.9545 19.1217L59.0909 36.0698C59.1818 50.6899 59.0909 53.1577 58.5 54.1354C58.0909 54.6942 57.5 55.2063 57.1364 55.2063C56.6818 55.2063 56.4545 55.672 56.4545 56.6032V58H63.7273H71V56.6032C71 55.7651 70.7727 55.2063 70.4091 55.2063C70.0909 55.2063 69.4091 54.927 68.9091 54.5545C68.0909 53.9026 68.0455 53.018 67.8182 33.928L67.5909 14L63.9545 14.5587Z" fill="white"/>
<path d="M16.2828 6.70733C17.6132 2.99001 20.6653 0 24.6565 0C28.8042 0 31.7048 2.82839 33.0327 6.70733L48.3739 50.6764C48.8435 51.9694 49 53.1034 49 53.6665C49 56.8181 46.4957 59 43.6002 59C40.3108 59 38.6673 57.2222 37.8848 54.8004L35.5345 47.2016H13.7735L11.4258 54.7196C10.6432 57.2248 8.99974 59 5.79114 59C2.66079 59 0 56.5757 0 53.3432C0 52.0502 0.391293 51.0805 0.54781 50.6764L16.2828 6.70733ZM17.1412 36.0496H32.0128L24.7348 12.6092H24.5783L17.1412 36.0496Z" fill="#FC3F1D"/>
<path d="M88.0324 14.3374C87.8287 14.4819 87.6759 14.9639 87.6759 15.3976C87.6759 15.8313 87.0139 17.4699 86.1991 19.1084C84.7222 22.0964 81.3102 25.3735 79.1713 25.8554C78.3056 26.0964 78 26.4819 78 27.5422C78 28.7952 78.1528 28.9398 79.7315 28.9398H81.463L81.6667 40.3614C81.8704 50 82.0231 52.1687 82.787 53.9036C84.1111 56.7952 86.0972 58 89.662 58C95.5185 58 98.7778 54.7711 99.6435 48.0723L100 45.3253H98.4722C97.0463 45.3253 96.9444 45.4699 96.588 47.5904C96.1296 50.5783 95.0093 52.5542 93.838 52.5542C91.6991 52.5542 91.4954 51.5422 91.4954 40.0723V29.1807L95.213 29.0361C98.9306 28.8916 98.9306 28.8916 98.7778 27.5904C98.625 26.3374 98.5741 26.2892 95.0602 26.2892H91.4954L91.3426 20.1205L91.1898 14H89.7639C89 14 88.1852 14.1446 88.0324 14.3374Z" fill="white"/>
</svg>
