<svg width="144" height="144" viewBox="0 0 144 144" fill="none" xmlns="http://www.w3.org/2000/svg">
<g clip-path="url(#clip0_4156_5)">
<path d="M45.5512 101.388H24.9798C23.3567 101.388 22.041 102.704 22.041 104.327V121.96C22.041 123.583 23.3567 124.898 24.9798 124.898H45.5512C47.1743 124.898 48.49 123.583 48.49 121.96V104.327C48.49 102.704 47.1743 101.388 45.5512 101.388ZM42.6124 119.021H27.9186V107.266H42.6124V119.021Z" fill="white"/>
<path d="M66.1229 105.796H52.8984V111.674H66.1229V105.796Z" fill="white"/>
<path d="M86.6944 114.612H52.8984V120.49H86.6944V114.612Z" fill="white"/>
<path d="M121.96 117.551H110.205V123.429H121.96V117.551Z" fill="white"/>
<path d="M121.96 108.735H110.205V114.612H121.96V108.735Z" fill="white"/>
<path d="M143.819 75.3925L133.533 47.4741C133.108 46.3189 132.007 45.5512 130.776 45.5512H113.143V10.2859C113.143 8.66286 111.827 7.34717 110.204 7.34717H33.796C32.1729 7.34717 30.8573 8.66286 30.8573 10.2859V45.5512H13.2246C12.0127 45.5512 10.925 46.2953 10.4857 47.425L0.19995 73.874C-0.151821 74.7783 -0.0345643 75.7977 0.513223 76.5982C1.06101 77.3991 1.9688 77.8778 2.93889 77.8778H10.2858V133.715C10.2858 135.338 11.6015 136.653 13.2246 136.653H130.776C132.399 136.653 133.714 135.338 133.714 133.715V79.3472H141.061C142.022 79.3472 142.922 78.8775 143.472 78.0894C144.022 77.3012 144.151 76.2941 143.819 75.3925ZM36.7348 13.2247H83.7552V22.041H36.7348V13.2247ZM36.7348 27.9186H83.7552V45.5512H36.7348V27.9186ZM7.23508 72.0002L15.235 51.4288H97.0917L89.0917 72.0002H7.23508ZM98.4491 130.776H16.1634V77.8778H91.1022C92.3141 77.8778 93.4017 77.1337 93.8411 76.0043L98.4491 64.1552V130.776ZM89.6328 45.5512V13.2247H107.265V45.5512H101.388H89.6328ZM127.837 130.776H104.327V61.559L111.956 77.6665C112.443 78.693 113.477 79.3472 114.612 79.3472H127.837V130.776ZM116.472 73.4696L106.032 51.4288H128.726L136.847 73.4696H116.472Z" fill="white"/>
<path d="M102.857 19.1021H94.041V24.9796H102.857V19.1021Z" fill="white"/>
<path d="M102.857 27.9185H94.041V33.796H102.857V27.9185Z" fill="white"/>
</g>
<defs>
<clipPath id="clip0_4156_5">
<rect width="144" height="144" fill="white"/>
</clipPath>
</defs>
</svg>
