<svg width="144" height="144" viewBox="0 0 144 144" fill="none" xmlns="http://www.w3.org/2000/svg">
<g clip-path="url(#clip0_4102_5)">
<path d="M140.044 120.953L116.05 96.9592C122.339 87.156 126 75.51 126 63C126 28.206 97.794 0 63 0C28.206 0 0 28.206 0 63C0 97.794 28.206 126 63 126C75.51 126 87.156 122.339 96.9592 116.05L120.953 140.045C126.227 145.319 134.773 145.319 140.044 140.045C145.316 134.771 145.318 126.227 140.044 120.953ZM63 121.5C30.6922 121.5 4.5 95.3078 4.5 63C4.5 30.6922 30.6922 4.5 63 4.5C95.3077 4.5 121.5 30.6922 121.5 63C121.5 95.3078 95.3077 121.5 63 121.5ZM136.863 136.863C133.348 140.377 127.649 140.377 124.137 136.863L100.73 113.456C105.556 109.843 109.845 105.552 113.458 100.73L136.863 124.135C140.38 127.647 140.38 133.348 136.863 136.863Z" fill="white"/>
<path d="M63 9C33.1762 9 9 33.1762 9 63C9 92.8238 33.1762 117 63 117C92.8238 117 117 92.8238 117 63C117 33.1762 92.8238 9 63 9ZM63 112.5C35.6625 112.5 13.5 90.3375 13.5 63C13.5 35.6625 35.6625 13.5 63 13.5C90.3375 13.5 112.5 35.6625 112.5 63C112.5 90.3375 90.3375 112.5 63 112.5Z" fill="white"/>
<path d="M63 24.75C61.7558 24.75 60.75 25.7558 60.75 27C60.75 28.2442 61.7558 29.25 63 29.25C81.639 29.25 96.75 44.361 96.75 63C96.75 64.2442 97.7558 65.25 99 65.25C100.244 65.25 101.25 64.2442 101.25 63C101.25 41.8748 84.1252 24.75 63 24.75Z" fill="white"/>
</g>
<defs>
<clipPath id="clip0_4102_5">
<rect width="144" height="144" fill="white"/>
</clipPath>
</defs>
</svg>
