<svg width="144" height="145" viewBox="0 0 144 145" fill="none" xmlns="http://www.w3.org/2000/svg">
<path d="M122.816 66.0092C122.816 66.0092 111.734 62.3162 96.9575 47.5406C82.1819 32.7648 78.4883 21.6816 78.4883 21.6816" stroke="white" stroke-width="9"/>
<path d="M122.819 66.0068C110.578 78.2474 90.732 78.2474 78.4914 66.0068C66.2508 53.7663 66.2508 33.9203 78.4914 21.6797M122.819 66.0068C135.059 53.7663 135.059 33.9203 122.819 21.6797C118.58 17.4412 113.43 14.6704 107.999 13.3672M122.819 66.0068L105.878 96.5M78.4914 21.6797C81.8574 18.3134 85.7994 15.8728 89.9994 14.3581M78.4914 21.6797L41.0156 42.5M96.9606 47.5386L65.9994 78.4994" stroke="white" stroke-width="9" stroke-linecap="round"/>
<path d="M12 58.6232L30 48.623M85.8792 132.502L99 108.503M30 114.502L54 90.5024" stroke="white" stroke-width="9" stroke-linecap="round"/>
</svg>
